<svg width="1456" height="2390" viewBox="0 0 1456 2390" fill="none" xmlns="http://www.w3.org/2000/svg">
<g filter="url(#filter0_f_835_19)">
<rect opacity="0.67" width="152.216" height="1327.89" transform="matrix(-0.275828 0.961207 0.967201 0.254011 -471.252 -450.145)" fill="#4717F6"/>
<rect opacity="0.67" width="152.216" height="1327.89" transform="matrix(-0.275828 0.961207 0.967201 0.254011 -513.237 -303.834)" fill="#0E0B16"/>
<rect opacity="0.67" width="152.216" height="1327.89" transform="matrix(-0.275828 0.961207 0.967201 0.254011 -555.223 -157.523)" fill="#4717F6"/>
<rect width="152.216" height="1327.89" transform="matrix(-0.275828 0.961207 0.967201 0.254011 -639.194 135.099)" fill="#A239CA"/>
<rect width="152.216" height="1327.89" transform="matrix(-0.275828 0.961207 0.967201 0.254011 -681.179 281.41)" fill="#0E0B16"/>
<rect width="152.216" height="1327.89" transform="matrix(-0.275828 0.961207 0.967201 0.254011 -723.164 427.722)" fill="#4717F6"/>
<rect width="152.216" height="1327.89" transform="matrix(-0.275828 0.961207 0.967201 0.254011 -765.149 574.032)" fill="#A239CA"/>
<rect width="152.216" height="1327.89" transform="matrix(-0.275828 0.961207 0.967201 0.254011 -807.135 720.344)" fill="#4717F6"/>
<rect width="152.216" height="1327.89" transform="matrix(-0.275828 0.961207 0.967201 0.254011 -849.122 866.656)" fill="#4717F6"/>
<rect width="152.216" height="1327.89" transform="matrix(-0.275828 0.961207 0.967201 0.254011 -891.107 1012.97)" fill="#A239CA"/>
<rect width="152.216" height="1327.89" transform="matrix(-0.275828 0.961207 0.967201 0.254011 -933.092 1159.28)" fill="#A239CA"/>
<rect width="152.216" height="1327.89" transform="matrix(-0.275828 0.961207 0.967201 0.254011 -975.078 1305.59)" fill="#0E0B16"/>
</g>
<defs>
<filter id="filter0_f_835_19" x="-1617.06" y="-1196.46" width="3072.12" height="3585.66" filterUnits="userSpaceOnUse" color-interpolation-filters="sRGB">
<feFlood flood-opacity="0" result="BackgroundImageFix"/>
<feBlend mode="normal" in="SourceGraphic" in2="BackgroundImageFix" result="shape"/>
<feGaussianBlur stdDeviation="300" result="effect1_foregroundBlur_835_19"/>
</filter>
</defs>
</svg>
